<?xml version="1.0" encoding="utf-8"?>
<!DOCTYPE svg PUBLIC "-//W3C//DTD SVG 1.1//EN" "http://www.w3.org/Graphics/SVG/1.1/DTD/svg11.dtd">
<svg version="1.1" xmlns="http://www.w3.org/2000/svg" xmlns:xlink="http://www.w3.org/1999/xlink" x="0px" y="0px"
	 width="140.4765625px" height="211.5864258px" viewBox="0 0 140.4765625 211.5864258"
	 enable-background="new 0 0 140.4765625 211.5864258" xml:space="preserve">
<g>
	<g>
		<path fill="#662B82" d="M64.3867188,77.6992188c-0.4140625,7.0458984-6.46875,12.4116211-13.5205078,12.0019531
			c-7.0449219-0.4301758-12.4003906-6.4804688-11.9765625-13.5263672
			c0.4208984-7.0405273,6.4599609-12.4169922,13.5117188-11.9912109
			C59.4462891,64.6083984,64.8066406,70.6533203,64.3867188,77.6992188z"/>
		<path fill="#662B82" d="M91.6835938,48.215332c-0.5439453,9.0625-8.3261719,15.9731445-17.3994141,15.434082
			c-9.0458984-0.5444336-15.9736328-8.3261719-15.4189453-17.3989258c0.5341797-9.0625,8.3261719-15.9677734,17.3886719-15.4238281
			C85.3115234,31.3657227,92.2226562,39.1577148,91.6835938,48.215332z"/>
		<path fill="#662B82" d="M67.2490234,20.328125c-0.6279297,10.565918-9.7109375,18.6381836-20.2861328,17.9902344
			c-10.5712891-0.6225586-18.6376953-9.7104492-17.9951172-20.2866211
			C29.5947266,7.4599609,38.6826172-0.6113281,49.2529297,0.0366211
			C59.8242188,0.6586914,67.8857422,9.7514648,67.2490234,20.328125z"/>
		<g>
			<path fill="#F29420" d="M108.2421875,101.7753906l13.4667969,76.7026367
				c2.0654297,11.7661133-6.0175781,21.3925781-17.9638672,21.3925781H27.7509766
				c-11.9462891,0-19.0859375-9.4121094-15.8671875-20.9165039L27.6611328,122.5625
				c3.21875-11.5043945,1.09375-20.9165039-4.7226562-20.9165039c-5.8173828,0-10.5761719,0-10.5761719,0"/>
		</g>
		<g>
			<path fill="none" stroke="#010101" stroke-width="23.4316998" stroke-linecap="round" stroke-miterlimit="10" d="
				M128.15625,64.2768555c0,0-6.0693359-0.0410156-13.4873047-0.0908203
				c-7.4189453-0.0498047-11.7675781,9.5302734-9.6640625,21.2895508l16.6357422,93.0146484
				c2.1035156,11.7592773-5.9492188,21.3803711-17.8955078,21.3803711H27.7509766
				c-11.9462891,0-19.0859375-9.4121094-15.8671875-20.9165039L27.6611328,122.5625
				c3.21875-11.5043945,1.09375-20.9165039-4.7226562-20.9165039c-5.8173828,0-10.5761719,0-10.5761719,0"/>
		</g>
		
			<line fill="#662B82" stroke="#010101" stroke-width="20.6007004" stroke-linecap="round" stroke-miterlimit="10" x1="65.3007812" y1="124.5351562" x2="102.2646484" y2="124.5351562"/>
		
			<line fill="#662B82" stroke="#010101" stroke-width="20.6007004" stroke-linecap="round" stroke-miterlimit="10" x1="64.2050781" y1="162.1899414" x2="105.5253906" y2="162.1899414"/>
		<path fill="#662B82" d="M46.9628906,38.3183594c0,0,5.3759766-0.3530273,9.046875,3.6391602
			c2.8154297,3.0639648,3.296875,9.2080078,3.296875,9.2080078l23.3193359-18.6333008c0,0-7.4082031-2.0375977-11.5566406-6.0864258
			c-3.2138672-3.1313477-3.7841797-9.4511719-3.7841797-9.4511719"/>
	</g>
</g>
</svg>
